<svg width="1063" height="524" viewBox="0 0 1063 524" fill="none" xmlns="http://www.w3.org/2000/svg">
    <g clip-path="url(#clip0_1010_13838)">
        <path
            d="M548.152 366H561.527C564.305 365.974 566.885 365.643 569.266 365.008C571.674 364.373 573.831 363.46 575.736 362.269C577.535 361.131 579.162 359.756 580.617 358.142C582.073 356.528 583.277 354.728 584.229 352.744C585.155 350.839 585.856 348.748 586.333 346.473C586.835 344.197 587.087 341.79 587.087 339.25V335.003C587.06 332.357 586.783 329.87 586.253 327.541C585.751 325.213 585.01 323.07 584.031 321.112C582.946 318.81 581.491 316.786 579.665 315.039C577.866 313.266 575.789 311.838 573.434 310.753C571.74 309.959 569.888 309.35 567.877 308.927C565.893 308.477 563.776 308.239 561.527 308.213H548.152V366ZM555.613 314.245H561.527C563.353 314.272 565.033 314.484 566.568 314.88C568.102 315.251 569.491 315.78 570.735 316.468C572.481 317.394 573.95 318.611 575.14 320.119C576.358 321.601 577.323 323.268 578.038 325.12C578.593 326.549 579.003 328.097 579.268 329.764C579.559 331.404 579.718 333.124 579.744 334.923V339.25C579.718 341.022 579.572 342.729 579.308 344.369C579.043 345.983 578.646 347.492 578.117 348.894C577.508 350.614 576.675 352.175 575.617 353.577C574.585 354.953 573.354 356.117 571.926 357.07C570.576 357.996 569.028 358.71 567.282 359.213C565.562 359.716 563.644 359.98 561.527 360.007H555.613V314.245ZM597.723 308.213V314.603H611.257V359.65H597.723V366H632.65V359.65H618.798V314.603H632.65V308.213H597.723ZM676.784 351.394C676.784 352.982 676.44 354.358 675.752 355.522C675.064 356.66 674.178 357.599 673.093 358.34C672.008 359.107 670.765 359.676 669.362 360.047C667.986 360.391 666.584 360.563 665.155 360.563C663.356 360.563 661.689 360.324 660.154 359.848C658.646 359.345 657.31 358.605 656.146 357.626C654.982 356.673 654.029 355.509 653.288 354.133C652.547 352.731 652.058 351.13 651.82 349.331H644.318C644.398 351.818 644.94 354.08 645.946 356.117C646.978 358.128 648.367 359.888 650.113 361.396C652.071 363.142 654.373 364.479 657.019 365.405C659.691 366.331 662.403 366.794 665.155 366.794C667.457 366.794 669.759 366.476 672.061 365.841C674.363 365.18 676.427 364.201 678.253 362.904C680.078 361.634 681.56 360.033 682.698 358.102C683.862 356.17 684.444 353.908 684.444 351.315C684.444 348.748 683.902 346.486 682.817 344.528C681.758 342.57 680.356 340.917 678.61 339.567C676.837 338.112 674.879 336.921 672.736 335.995C670.593 335.043 668.449 334.236 666.306 333.574C665.01 333.177 663.621 332.714 662.139 332.185C660.684 331.656 659.334 330.994 658.091 330.2C656.82 329.407 655.775 328.441 654.955 327.303C654.135 326.139 653.712 324.723 653.685 323.056C653.685 321.522 653.989 320.172 654.598 319.008C655.233 317.844 656.08 316.865 657.138 316.071C658.17 315.277 659.347 314.682 660.67 314.285C662.02 313.888 663.396 313.69 664.798 313.69C666.544 313.69 668.105 313.968 669.481 314.523C670.884 315.052 672.088 315.807 673.093 316.786C674.098 317.765 674.905 318.942 675.514 320.318C676.123 321.667 676.533 323.175 676.744 324.842H684.285C684.232 322.196 683.664 319.802 682.579 317.659C681.494 315.516 680.052 313.69 678.253 312.182C676.453 310.673 674.39 309.509 672.061 308.689C669.733 307.842 667.312 307.419 664.798 307.419C662.522 307.419 660.26 307.776 658.011 308.491C655.762 309.178 653.751 310.197 651.978 311.547C650.206 312.896 648.764 314.55 647.652 316.508C646.567 318.466 646.025 320.688 646.025 323.175C646.025 325.663 646.567 327.832 647.652 329.684C648.764 331.51 650.192 333.098 651.939 334.447C653.659 335.77 655.564 336.908 657.654 337.86C659.771 338.787 661.848 339.58 663.885 340.242C665.287 340.692 666.743 341.194 668.251 341.75C669.786 342.306 671.188 342.994 672.458 343.814C673.728 344.661 674.76 345.692 675.554 346.91C676.374 348.127 676.784 349.622 676.784 351.394ZM732.785 348.616H725.443C725.205 350.363 724.795 351.99 724.213 353.498C723.63 354.98 722.85 356.263 721.871 357.348C720.892 358.459 719.688 359.319 718.259 359.928C716.857 360.536 715.19 360.84 713.258 360.84C711.486 360.84 709.938 360.563 708.615 360.007C707.292 359.425 706.141 358.631 705.162 357.626C704.183 356.647 703.376 355.509 702.741 354.212C702.106 352.916 701.59 351.527 701.193 350.045C700.796 348.59 700.505 347.108 700.32 345.6C700.161 344.065 700.082 342.583 700.082 341.155V333.018C700.082 331.59 700.161 330.121 700.32 328.613C700.505 327.078 700.796 325.583 701.193 324.128C701.59 322.673 702.106 321.297 702.741 320C703.402 318.704 704.222 317.566 705.201 316.587C706.154 315.608 707.292 314.841 708.615 314.285C709.964 313.703 711.512 313.412 713.258 313.412C715.19 313.412 716.857 313.743 718.259 314.404C719.688 315.039 720.892 315.926 721.871 317.063C722.85 318.201 723.63 319.524 724.213 321.032C724.795 322.54 725.205 324.168 725.443 325.914H732.785C732.468 323.162 731.806 320.649 730.801 318.373C729.822 316.098 728.512 314.14 726.872 312.499C725.231 310.885 723.273 309.642 720.998 308.768C718.722 307.869 716.142 307.419 713.258 307.419C710.851 307.419 708.681 307.763 706.749 308.451C704.818 309.112 703.098 310.038 701.59 311.229C700.055 312.42 698.732 313.835 697.621 315.476C696.536 317.09 695.636 318.849 694.922 320.754C694.181 322.66 693.625 324.657 693.255 326.748C692.911 328.838 692.726 330.955 692.699 333.098V341.155C692.726 343.298 692.911 345.415 693.255 347.505C693.625 349.595 694.181 351.593 694.922 353.498C695.636 355.403 696.536 357.163 697.621 358.777C698.732 360.391 700.055 361.793 701.59 362.984C703.098 364.174 704.818 365.114 706.749 365.802C708.707 366.463 710.877 366.794 713.258 366.794C716.037 366.794 718.55 366.357 720.799 365.484C723.075 364.584 725.046 363.328 726.713 361.714C728.353 360.126 729.69 358.221 730.722 355.998C731.753 353.749 732.441 351.289 732.785 348.616ZM781.762 340.44V333.852C781.735 331.788 781.55 329.698 781.206 327.581C780.889 325.464 780.386 323.427 779.698 321.469C778.983 319.511 778.084 317.685 776.999 315.992C775.941 314.272 774.671 312.777 773.189 311.507C771.707 310.237 770 309.245 768.069 308.53C766.137 307.789 763.981 307.419 761.6 307.419C759.218 307.419 757.062 307.789 755.13 308.53C753.225 309.245 751.532 310.237 750.05 311.507C748.568 312.803 747.285 314.312 746.2 316.031C745.142 317.725 744.269 319.551 743.581 321.509C742.866 323.467 742.337 325.504 741.993 327.621C741.676 329.711 741.504 331.788 741.477 333.852V340.44C741.504 342.504 741.689 344.581 742.033 346.671C742.377 348.762 742.906 350.786 743.62 352.744C744.308 354.702 745.195 356.541 746.28 358.261C747.364 359.954 748.648 361.436 750.129 362.706C751.611 363.976 753.305 364.981 755.21 365.722C757.141 366.437 759.298 366.794 761.679 366.794C764.06 366.794 766.204 366.437 768.109 365.722C770.04 364.981 771.747 363.976 773.229 362.706C774.71 361.436 775.98 359.954 777.039 358.261C778.124 356.567 779.01 354.742 779.698 352.784C780.386 350.826 780.889 348.801 781.206 346.711C781.55 344.594 781.735 342.504 781.762 340.44ZM774.499 333.772V340.44C774.472 341.816 774.38 343.258 774.221 344.766C774.088 346.275 773.837 347.756 773.467 349.212C773.07 350.693 772.554 352.109 771.919 353.458C771.31 354.781 770.543 355.945 769.617 356.951C768.664 357.983 767.527 358.803 766.204 359.412C764.907 360.02 763.399 360.324 761.679 360.324C759.959 360.324 758.451 360.02 757.154 359.412C755.858 358.803 754.733 357.983 753.781 356.951C752.828 355.945 752.035 354.768 751.4 353.419C750.765 352.069 750.249 350.654 749.852 349.172C749.455 347.717 749.164 346.235 748.979 344.727C748.82 343.218 748.727 341.79 748.701 340.44V333.772C748.727 332.423 748.82 331.007 748.979 329.526C749.164 328.018 749.455 326.523 749.852 325.041C750.222 323.586 750.725 322.196 751.36 320.874C751.995 319.524 752.789 318.333 753.741 317.302C754.694 316.296 755.818 315.489 757.115 314.88C758.411 314.272 759.906 313.968 761.6 313.968C763.319 313.968 764.828 314.272 766.124 314.88C767.421 315.463 768.545 316.256 769.498 317.262C770.45 318.294 771.244 319.484 771.879 320.834C772.514 322.157 773.03 323.546 773.427 325.001C773.797 326.483 774.062 327.978 774.221 329.486C774.38 330.968 774.472 332.397 774.499 333.772ZM807.163 366H813.553L831.77 308.213H823.951L811.171 351.275L810.298 354.173L809.465 351.355L796.764 308.213H788.906L807.163 366ZM873.602 339.289V333.058H849.471V314.484H877.254V308.213H842.129V366H877.611V359.769H849.471V339.289H873.602ZM909.759 342.425L921.11 366H928.849L928.889 365.524L916.625 340.837C918.213 340.149 919.668 339.316 920.991 338.337C922.314 337.358 923.452 336.233 924.404 334.963C925.357 333.693 926.098 332.278 926.627 330.716C927.182 329.155 927.46 327.435 927.46 325.557C927.46 322.646 926.944 320.119 925.912 317.976C924.907 315.807 923.518 314.007 921.745 312.579C919.946 311.15 917.856 310.078 915.474 309.364C913.093 308.649 910.553 308.266 907.854 308.213H890.907V366H898.209V342.425H909.759ZM898.209 336.392V314.245H907.854C909.627 314.272 911.254 314.523 912.736 315C914.244 315.476 915.54 316.177 916.625 317.103C917.71 318.056 918.557 319.233 919.165 320.635C919.774 322.011 920.078 323.625 920.078 325.477C920.078 327.224 919.761 328.772 919.126 330.121C918.491 331.444 917.631 332.569 916.546 333.495C915.434 334.421 914.151 335.135 912.696 335.638C911.241 336.114 909.693 336.365 908.052 336.392H898.209Z"
            fill="white" fill-opacity="0.7" />
        <path
            d="M556.963 405.753H547.874V463.54H555.018V440.48L554.423 417.183L564.226 447.466H568.433L579.109 416.349L578.514 440.48V463.54H585.658V405.753H576.529L566.369 434.646L556.963 405.753ZM614.75 434.765L601.613 405.753H593.239L611.218 441.989L611.337 463.54H618.163L618.282 441.989L636.262 405.753H627.927L614.75 434.765ZM725.602 448.934C725.602 450.522 725.258 451.898 724.57 453.062C723.882 454.2 722.995 455.139 721.911 455.88C720.826 456.647 719.582 457.216 718.18 457.586C716.804 457.93 715.402 458.102 713.973 458.102C712.174 458.102 710.507 457.864 708.972 457.388C707.464 456.885 706.128 456.144 704.963 455.165C703.799 454.213 702.847 453.049 702.106 451.673C701.365 450.27 700.875 448.67 700.637 446.87H693.136C693.215 449.358 693.758 451.62 694.763 453.657C695.795 455.668 697.184 457.428 698.931 458.936C700.889 460.682 703.191 462.018 705.836 462.944C708.509 463.871 711.221 464.334 713.973 464.334C716.275 464.334 718.577 464.016 720.879 463.381C723.181 462.72 725.244 461.741 727.07 460.444C728.896 459.174 730.378 457.573 731.515 455.642C732.68 453.71 733.262 451.448 733.262 448.855C733.262 446.288 732.719 444.026 731.634 442.068C730.576 440.11 729.174 438.456 727.427 437.107C725.655 435.652 723.697 434.461 721.553 433.535C719.41 432.582 717.267 431.775 715.124 431.114C713.827 430.717 712.438 430.254 710.956 429.725C709.501 429.196 708.152 428.534 706.908 427.74C705.638 426.946 704.593 425.981 703.773 424.843C702.952 423.679 702.529 422.263 702.503 420.596C702.503 419.062 702.807 417.712 703.415 416.548C704.05 415.384 704.897 414.405 705.956 413.611C706.987 412.817 708.165 412.222 709.488 411.825C710.837 411.428 712.213 411.23 713.616 411.23C715.362 411.23 716.923 411.507 718.299 412.063C719.701 412.592 720.905 413.346 721.911 414.325C722.916 415.304 723.723 416.482 724.332 417.858C724.94 419.207 725.35 420.715 725.562 422.382H733.103C733.05 419.736 732.481 417.342 731.396 415.199C730.311 413.055 728.869 411.23 727.07 409.721C725.271 408.213 723.207 407.049 720.879 406.229C718.55 405.382 716.129 404.959 713.616 404.959C711.34 404.959 709.078 405.316 706.829 406.03C704.58 406.718 702.569 407.737 700.796 409.086C699.023 410.436 697.581 412.09 696.47 414.048C695.385 416.006 694.843 418.228 694.843 420.715C694.843 423.202 695.385 425.372 696.47 427.224C697.581 429.05 699.01 430.638 700.756 431.987C702.476 433.31 704.381 434.448 706.472 435.4C708.588 436.326 710.665 437.12 712.703 437.782C714.105 438.231 715.56 438.734 717.068 439.29C718.603 439.845 720.005 440.533 721.276 441.354C722.546 442.2 723.577 443.232 724.371 444.449C725.192 445.666 725.602 447.161 725.602 448.934ZM758.028 436.71L775.491 463.54H784.421L762.87 431.034L783.071 405.753H774.141L757.194 426.986L751.598 433.971V405.753H744.097V463.54H751.598V444.013L758.028 436.71ZM792.994 405.753V412.142H806.528V457.19H792.994V463.54H827.92V457.19H814.069V412.142H827.92V405.753H792.994ZM850.106 457.309V405.753H842.764V463.54H878.365V457.309H850.106ZM898.924 457.309V405.753H891.581V463.54H927.182V457.309H898.924ZM969.689 448.934C969.689 450.522 969.345 451.898 968.658 453.062C967.97 454.2 967.083 455.139 965.998 455.88C964.914 456.647 963.67 457.216 962.268 457.586C960.892 457.93 959.489 458.102 958.061 458.102C956.261 458.102 954.594 457.864 953.06 457.388C951.552 456.885 950.215 456.144 949.051 455.165C947.887 454.213 946.934 453.049 946.194 451.673C945.453 450.27 944.963 448.67 944.725 446.87H937.224C937.303 449.358 937.846 451.62 938.851 453.657C939.883 455.668 941.272 457.428 943.018 458.936C944.976 460.682 947.278 462.018 949.924 462.944C952.597 463.871 955.309 464.334 958.061 464.334C960.363 464.334 962.664 464.016 964.966 463.381C967.268 462.72 969.332 461.741 971.158 460.444C972.984 459.174 974.465 457.573 975.603 455.642C976.767 453.71 977.349 451.448 977.349 448.855C977.349 446.288 976.807 444.026 975.722 442.068C974.664 440.11 973.261 438.456 971.515 437.107C969.742 435.652 967.784 434.461 965.641 433.535C963.498 432.582 961.355 431.775 959.212 431.114C957.915 430.717 956.526 430.254 955.044 429.725C953.589 429.196 952.239 428.534 950.996 427.74C949.726 426.946 948.681 425.981 947.86 424.843C947.04 423.679 946.617 422.263 946.59 420.596C946.59 419.062 946.895 417.712 947.503 416.548C948.138 415.384 948.985 414.405 950.043 413.611C951.075 412.817 952.253 412.222 953.576 411.825C954.925 411.428 956.301 411.23 957.703 411.23C959.45 411.23 961.011 411.507 962.387 412.063C963.789 412.592 964.993 413.346 965.998 414.325C967.004 415.304 967.811 416.482 968.419 417.858C969.028 419.207 969.438 420.715 969.65 422.382H977.191C977.138 419.736 976.569 417.342 975.484 415.199C974.399 413.055 972.957 411.23 971.158 409.721C969.359 408.213 967.295 407.049 964.966 406.229C962.638 405.382 960.217 404.959 957.703 404.959C955.428 404.959 953.166 405.316 950.917 406.03C948.667 406.718 946.657 407.737 944.884 409.086C943.111 410.436 941.669 412.09 940.558 414.048C939.473 416.006 938.93 418.228 938.93 420.715C938.93 423.202 939.473 425.372 940.558 427.224C941.669 429.05 943.098 430.638 944.844 431.987C946.564 433.31 948.469 434.448 950.559 435.4C952.676 436.326 954.753 437.12 956.79 437.782C958.193 438.231 959.648 438.734 961.156 439.29C962.691 439.845 964.093 440.533 965.363 441.354C966.633 442.2 967.665 443.232 968.459 444.449C969.279 445.666 969.689 447.161 969.689 448.934Z"
            fill="white" fill-opacity="0.7" />
        <path
            d="M492.141 387.52C434.201 371.5 231.441 349.76 150.941 285.84C70.4206 221.92 31.6005 51.34 9.12054 4M484.781 384.52C426.001 369.7 228.901 355.9 148.781 293.4C68.6605 230.88 25.6005 57.5 4.06055 9.45999"
            stroke="white" stroke-opacity="0.7" stroke-width="2" stroke-linecap="round" />
        <path
            d="M47.64 61.5999C28.34 33.2199 10.14 24.7799 -1 16.3999M44.1 53.9199C27.46 37.6199 14.88 24.2199 6.42001 9.85986"
            stroke="white" stroke-opacity="0.7" stroke-width="2" stroke-linecap="round" />
        <path
            d="M9.06 75.5799C5.24 41.7399 2.46 27.7199 -1 16.3999M5.51999 67.8999C2.11999 46.2999 2.76001 28.1199 6.42001 9.85986"
            stroke="white" stroke-opacity="0.7" stroke-width="2" stroke-linecap="round" />
    </g>
    <defs>
        <clipPath id="clip0_1010_13838">
            <rect width="1062.19" height="523.093" fill="white" />
        </clipPath>
    </defs>
</svg>
    